PathFileType	4	(X/Y/Z)	C:\Users\chris\Documents\GitHub\baseballds\vids\pitch5_Sports2D\pitch5_Sports2D_px_person06.trc
DataRate	CameraRate	NumFrames	NumMarkers	Units	OrigDataRate	OrigDataStartFrame	OrigNumFrames
30	30	10	22	m	30	55	149
Frame#	Time	Hip			RHip			RKnee			RAnkle			RBigToe			RSmallToe			RHeel			LHip			LKnee			LAnkle			LBigToe			LSmallToe			LHeel			Neck			Head			Nose			RShoulder			RElbow			RWrist			LShoulder			LElbow			LWrist		
		X1	Y1	Z1	X2	Y2	Z2	X3	Y3	Z3	X4	Y4	Z4	X5	Y5	Z5	X6	Y6	Z6	X7	Y7	Z7	X8	Y8	Z8	X9	Y9	Z9	X10	Y10	Z10	X11	Y11	Z11	X12	Y12	Z12	X13	Y13	Z13	X14	Y14	Z14	X15	Y15	Z15	X16	Y16	Z16	X17	Y17	Z17	X18	Y18	Z18	X19	Y19	Z19	X20	Y20	Z20	X21	Y21	Z21	X22	Y22	Z22
55	1.8333333333333333	1005.1851770989327	547.7536898666934	0.0	1012.7598658556906	552.44038234224	0.0	1061.586391105235	637.9064721439597	0.0	1080.6662131507485	728.5142016760444	0.0	1118.3499743830173	754.7410376187637	0.0	1111.4950123093995	758.2116070844884	0.0	1073.6410803018255	743.4618293969859	0.0	994.1739703899531	545.9055899548034	0.0	957.5382887587526	615.4779426851535	0.0	886.2012760634959	647.9927394453936	0.0	865.1752409948483	682.5381900051682	0.0	860.8846681148937	677.0871706693864	0.0	872.6271704837222	646.0437229522092	0.0	1102.6258562620371	481.9586898341118	0.0	1154.3355646049429	441.54419302583653	0.0	1145.127683471401	478.7420400209997	0.0	1073.144997835472	485.23598039909274	0.0	1034.8979282820624	539.4413923758722	0.0	1070.9082438403202	571.1326046686387	0.0	1114.8139041328805	496.4206927650819	0.0	1107.465725252184	547.1192811173529	0.0	1109.4716450515657	581.0294624499421	0.0
56	1.8666666666666667	1012.9849129454567	546.6517185036826	0.0	1019.6310270242716	549.9803824046338	0.0	1064.300337804742	637.32239597479	0.0	1081.3632343970673	729.727806695165	0.0	1118.9828523133779	755.0562716898729	0.0	1112.3940103153907	758.4939147840207	0.0	1074.178357662619	744.2505870469582	0.0	1003.6581289071964	545.1286787575639	0.0	963.4288864556444	609.4396032157114	0.0	887.2072292773701	622.5539270053675	0.0	864.2760458484854	645.4155636732015	0.0	861.3094296992168	642.0473338331087	0.0	874.6293970948813	616.3714561621917	0.0	1114.41779264392	482.91469516099244	0.0	1164.1353978134928	440.50869605789705	0.0	1158.1173632900448	476.80899209277476	0.0	1082.8251531121457	483.5567812924891	0.0	1037.094048110897	534.9465644922517	0.0	1064.1867937118625	571.8460540758499	0.0	1125.2090043361131	502.2511654597642	0.0	1095.0838170018071	547.0735587920806	0.0	1088.6369821774492	580.2548920092248	0.0
57	1.9	1019.7341721717625	545.3974626559071	0.0	1025.6208446477751	546.8970043645783	0.0	1065.3855566141394	638.3668732790106	0.0	1081.6560972145794	731.6966633934898	0.0	1119.785602411535	755.267784977238	0.0	1112.9421222091087	758.9315330562002	0.0	1074.112075412926	744.774957971094	0.0	1013.1843175477322	543.5167421318669	0.0	969.5967649090645	604.3121821447669	0.0	890.8533768828538	595.1581752493021	0.0	865.4193618764846	607.748828253581	0.0	863.4686544714136	606.5029204499679	0.0	880.1058874115015	585.2528204468018	0.0	1124.1128874394583	482.68242003102785	0.0	1173.307957193244	439.1180715029295	0.0	1168.2791909259997	474.8403471365491	0.0	1091.1397127727973	482.8964936444717	0.0	1040.7017381036	531.4281965793394	0.0	1060.5005732327552	571.738481368483	0.0	1132.8285232446501	504.42791676966664	0.0	1092.5405980631394	543.2327304633886	0.0	1079.1583519540377	577.1217518760202	0.0
58	1.9333333333333333	1025.6006716983225	544.1062803349436	0.0	1030.3472184758846	543.857066614973	0.0	1066.0895798531235	639.7116162122652	0.0	1081.7613003688525	733.0104389761625	0.0	1120.707370423405	755.3296002259974	0.0	1113.019094763363	759.637881770128	0.0	1073.3809105147775	744.9243001602651	0.0	1021.7014507701734	541.7306211480935	0.0	975.4017558952055	599.2670673346654	0.0	898.0031433448663	570.0650005709738	0.0	867.8565225815922	575.4336385888753	0.0	867.2750235897788	575.6675175631648	0.0	890.0569498425523	558.2737206452816	0.0	1130.9937726872606	479.9191483992716	0.0	1180.9136532930274	435.8087190958903	0.0	1175.532315028563	471.6956281474952	0.0	1097.5212054322112	481.6931128758627	0.0	1044.346161783326	529.0456382694625	0.0	1062.7646045218103	571.3504143939194	0.0	1138.1567427624818	501.91919254383623	0.0	1098.6228233548652	538.774718934837	0.0	1083.349942449207	574.4069730824972	0.0
59	1.9666666666666666	1031.003621990947	543.5494333595087	0.0	1034.4946845876486	542.4322066024738	0.0	1067.1126988071223	640.7507435102889	0.0	1081.6553842118349	733.1458721058668	0.0	1121.3498654446155	755.3690653488038	0.0	1112.7395478098128	760.4042041455406	0.0	1072.523129092863	745.2668555986095	0.0	1028.4806518932785	540.8025158947504	0.0	981.0272183182628	594.0373157615721	0.0	909.0749578251045	550.2379981128715	0.0	873.4522748524043	550.5377074765643	0.0	874.8730813059423	552.1628682245857	0.0	903.5996378833645	537.7889405535224	0.0	1135.6700149668645	474.68414931110067	0.0	1185.2968875622394	429.5368117840235	0.0	1180.7340415360784	466.15927468078553	0.0	1101.8497081722319	479.422476895518	0.0	1047.1532096336	527.7813841172386	0.0	1068.5499630002628	571.466082622218	0.0	1141.917908067943	495.2651018036376	0.0	1108.1322758105719	535.1466340433211	0.0	1098.3436545439415	573.6370790845805	0.0
60	2.0	1036.5045031347718	543.7220850159994	0.0	1038.8680373141317	542.4821436699391	0.0	1068.4659117038664	641.4566800020687	0.0	1081.2601921938958	732.5725965902294	0.0	1121.129421188099	755.8142691022414	0.0	1111.878282524549	761.2803670573298	0.0	1071.920310086321	745.6979462782527	0.0	1034.2904099223988	540.5453630004981	0.0	987.5733900161138	589.5961136287654	0.0	922.7215982131667	536.977215260768	0.0	884.0095062012844	532.5868308565863	0.0	887.3164520043642	535.6864774786017	0.0	919.0120235063641	523.8120938821987	0.0	1138.5981926458596	467.99349970925834	0.0	1186.0600783422647	420.25006001491727	0.0	1183.6211124986605	457.89680537283505	0.0	1104.7595944217242	475.93948330013853	0.0	1049.867124810155	526.3023456088606	0.0	1075.3105394597617	570.724454262093	0.0	1145.0992215357176	486.82332451656333	0.0	1116.9038037214104	532.289202286955	0.0	1118.3460020943355	575.1845642176747	0.0
61	2.033333333333333	1042.7100773287357	543.891381972502	0.0	1043.8332066560743	542.3878891667307	0.0	1069.6860791913139	641.9838623765904	0.0	1080.7025037756935	732.2217090124997	0.0	1120.2942489175493	756.7941431739046	0.0	1110.780504182021	762.2357285596703	0.0	1071.5675244750685	746.1334541814106	0.0	1040.589867250842	540.2615803940483	0.0	995.9866036220709	587.4657375459813	0.0	937.1001560178836	530.2883735837795	0.0	897.9323978143625	520.3961806459962	0.0	902.6303495921816	525.0489868162182	0.0	934.9059870109443	516.0168062089768	0.0	1139.9006468608043	460.6420481402105	0.0	1183.886382124459	408.6728980461909	0.0	1183.8198590623765	447.43105630077724	0.0	1106.691760133062	471.04906428952876	0.0	1053.3263124234834	523.4945852362245	0.0	1082.973027030222	567.9525603482548	0.0	1148.3610053110842	478.96348257585674	0.0	1124.2167589941034	529.2199702786453	0.0	1137.3393783474435	574.6043268783421	0.0
62	2.0666666666666664	1049.702875509868	543.6380167456712	0.0	1049.22099181819	541.6036014500514	0.0	1070.709101115705	642.6877682466175	0.0	1080.3418083258798	732.763731938885	0.0	1120.0098540085896	757.9405723253834	0.0	1110.5804589111588	762.8886828743634	0.0	1071.3095305688548	746.8270968636116	0.0	1047.9538944072485	540.0397555624764	0.0	1006.3171563424119	588.3003843811655	0.0	951.0393775119821	529.4927319180234	0.0	912.5686667252248	515.1481395817702	0.0	918.2647772657124	521.1750133565623	0.0	949.417349443248	514.3843948054704	0.0	1140.1509181047743	452.62510486870195	0.0	1179.5349967473237	396.17460589514883	0.0	1182.0906614552694	435.6628961625387	0.0	1107.6076948811672	464.6458721588998	0.0	1057.4259495118476	519.4956993097661	0.0	1091.4945647410786	564.1550192689189	0.0	1151.7551715881164	472.17241026436756	0.0	1131.877729258264	524.2775929129739	0.0	1151.1192577124239	563.7239973699827	0.0
63	2.1	1056.8646033068287	543.244944904011	0.0	1054.3740823775531	541.304440427657	0.0	1072.1588500527573	643.7530933357726	0.0	1080.4465194467552	734.1465783195151	0.0	1120.8284283879248	758.8099698155992	0.0	1111.6829882788363	763.1423410021209	0.0	1070.9820215113657	747.6331434825966	0.0	1056.3112293033346	540.7249498581991	0.0	1018.3125514732262	591.5889647522066	0.0	963.7768384437966	533.9506373380725	0.0	927.0310510684114	519.7910703746766	0.0	933.0947111685391	525.8563770680945	0.0	961.1457416536257	518.5979559783777	0.0	1140.034701441432	443.96418992514253	0.0	1173.9047205191569	384.8075752619983	0.0	1179.681039469251	423.86121182896176	0.0	1107.8056882092892	457.4414748415636	0.0	1061.5576974070273	515.1858048435994	0.0	1099.846235228113	560.5530028713692	0.0	1154.480895949819	465.39679897466834	0.0	1141.3792696112623	515.832616406195	0.0	1157.4570588438933	540.2437843827847	0.0
64	2.1333333333333333	1063.5097522905237	543.1530679701453	0.0	1058.8925415554572	542.4914063565047	0.0	1074.5894358043042	644.789316826797	0.0	1081.057264216449	735.9479259337974	0.0	1122.2301211052684	758.9909619378649	0.0	1113.3692682506946	763.1054249166181	0.0	1070.6346413990648	748.6092464212426	0.0	1065.2755472441502	542.6664907512105	0.0	1032.1771937498427	596.7012414242693	0.0	974.7077047541293	543.4345011473549	0.0	941.2037116913856	534.8295553636079	0.0	946.897292231462	539.1526407334117	0.0	970.0544237625825	528.2798706370423	0.0	1139.4733801784716	435.4655648171647	0.0	1167.6679833069923	376.15216131137237	0.0	1177.2424539972621	413.5705346908364	0.0	1108.0283845655215	450.960805262423	0.0	1065.3209835705438	511.46909416575045	0.0	1107.5177381055378	557.0256129024148	0.0	1155.150086528509	457.77951712809175	0.0	1151.361234429925	503.4258303959374	0.0	1156.6907395059259	516.7962775475665	0.0
